<?xml version="1.0" encoding="utf-8"?>
<!-- Generator: Adobe Illustrator 21.0.2, SVG Export Plug-In . SVG Version: 6.00 Build 0)  -->
<svg version="1.1" id="Layer_1" xmlns="http://www.w3.org/2000/svg" xmlns:xlink="http://www.w3.org/1999/xlink" x="0px" y="0px"
	 viewBox="0 0 2228.6 553.2" style="enable-background:new 0 0 2228.6 553.2;" xml:space="preserve">
<style type="text/css">
	.st0{fill:#602480;}
	.st1{fill:#2D9ED3;}
	.st2{fill:#999999;}
	.st3{fill:#00B6E0;}
	.st4{fill:#00CEBA;}
</style>
<g>
	<g>
		<polygon class="st0" points="108.8,120.8 121.9,138.3 95.7,157.9 82.6,140.5 		"/>
		<polygon class="st0" points="161.3,81.5 174.4,99 148.2,118.7 135.1,101.1 		"/>
		<polygon class="st0" points="407.5,93.4 379.8,88.1 383.5,66.6 411.2,71.9 		"/>
		<polygon class="st0" points="318.9,55.6 351.2,61.1 347.5,82.6 315.2,77.2 		"/>
		<polygon class="st0" points="254.3,44.6 286.6,50.1 282.9,71.6 250.6,66.1 		"/>
		<polygon class="st0" points="192.3,389.9 208.3,418.6 189.2,429.2 173.2,400.7 		"/>
		
			<rect x="147.8" y="336" transform="matrix(0.872 -0.4895 0.4895 0.872 -152.2043 122.782)" class="st0" width="21.8" height="32.8"/>
		<polygon class="st0" points="323,437.5 333.3,456.8 304.4,472.2 294.1,452.9 		"/>
		
			<rect x="355.2" y="413.2" transform="matrix(0.8828 -0.4698 0.4698 0.8828 -155.7013 224.2756)" class="st0" width="32.8" height="21.8"/>
		<polygon class="st0" points="438.8,376 449,395.3 420.1,410.6 409.8,391.4 		"/>
		<path class="st0" d="M439.7,124.8L439.7,124.8l-4-0.1c-14.2,0-34.1-12.9-34.1-34.1c0-23.4,13.7-39.2,34.1-39.2
			c24.2,0,39.2,17.7,39.2,34.1c0,15.1-4.4,26.2-13,32.7C454.3,124.2,445.6,124.8,439.7,124.8z M435.7,73.4
			c-10.6,0-12.2,10.8-12.2,17.4c0,8.4,9.7,12.2,12.2,12.2l4,0.1l0,0c2.9,0,6.6-0.2,8.9-2c2.8-2.2,4.4-7.7,4.4-15.4
			C453,81.5,447.8,73.4,435.7,73.4z"/>
		<path class="st0" d="M500.7,381.8L500.7,381.8l-4-0.1c-14.2,0-34.1-12.9-34.1-34.1c0-23.4,13.7-39.2,34.1-39.2
			c24.2,0,39.2,17.7,39.2,34.1c0,15.1-4.4,26.2-13,32.7C515.3,381.1,506.6,381.8,500.7,381.8z M496.7,330.3
			c-10.6,0-12.2,10.8-12.2,17.4c0,8.4,9.7,12.2,12.2,12.2l4,0.1l0,0c2.9,0,6.6-0.2,8.9-2c2.9-2.2,4.4-7.7,4.4-15.4
			C514.1,338.4,508.8,330.3,496.7,330.3z"/>
		<path class="st0" d="M414,546.4L414,546.4l-4-0.1c-14.2,0-34.1-12.9-34.1-34.1c0-23.4,13.7-39.2,34.1-39.2
			c24.2,0,39.2,17.7,39.2,34.1c0,15.1-4.4,26.2-13,32.7C428.6,545.7,419.9,546.4,414,546.4z M409.9,495c-10.6,0-12.2,10.8-12.2,17.4
			c0,8.4,9.7,12.2,12.2,12.2l4,0.1l0,0c2.9,0,6.6-0.2,8.9-2c2.8-2.2,4.4-7.7,4.4-15.4C427.3,503,422.1,495,409.9,495z"/>
		<path class="st0" d="M241.4,530.1L241.4,530.1l-4-0.1c-14.2,0-34.1-12.9-34.1-34.1c0-23.4,13.7-39.2,34.1-39.2
			c24.2,0,39.2,17.7,39.2,34.1c0,15.1-4.4,26.2-13,32.7C256,529.4,247.3,530.1,241.4,530.1z M237.4,478.6
			c-10.1,0-12.2,9.5-12.2,17.4c0,8.4,9.7,12.2,12.2,12.2l4,0.1l0,0c2.9,0,6.6-0.3,8.9-2c2.8-2.2,4.4-7.7,4.4-15.4
			C254.8,486.7,249.5,478.6,237.4,478.6z"/>
		<path class="st0" d="M105.9,488.6L105.9,488.6l-4-0.1c-14.2,0-34.1-12.9-34.1-34.1c0-23.5,13.7-39.2,34.1-39.2
			c24.2,0,39.2,17.7,39.2,34.1c0,15.1-4.4,26.2-13,32.7C120.5,487.9,111.8,488.6,105.9,488.6z M101.9,437.1
			c-10.6,0-12.2,10.9-12.2,17.4c0,8.4,9.7,12.2,12.2,12.2l4,0.1l0,0c2.9,0,6.6-0.2,8.9-2c2.8-2.2,4.4-7.7,4.4-15.4
			C119.3,445.2,114,437.1,101.9,437.1z"/>
		<path class="st0" d="M136.4,352.4L136.4,352.4l-4-0.1c-14.2,0-34.1-12.9-34.1-34.1c0-23.4,13.7-39.2,34.1-39.2
			c24.2,0,39.2,17.7,39.2,34.1c0,15.1-4.4,26.2-12.9,32.7C151.1,351.8,142.3,352.4,136.4,352.4z M132.4,301
			c-10.6,0-12.2,10.8-12.2,17.4c0,8.4,9.7,12.2,12.2,12.2l4,0.1l0,0c2.9,0,6.6-0.2,8.9-2c2.8-2.2,4.4-7.7,4.4-15.4
			C149.8,309,144.5,301,132.4,301z"/>
		<path class="st0" d="M62,183.2l7.4-5.5l-13.1-17.5l-8,6C56.2,170,60.9,176.7,62,183.2z"/>
		<path class="st0" d="M38.1,225.2L38.1,225.2l-4-0.1C19.8,225.1,0,212.2,0,191.1c0-23.4,13.7-39.2,34.1-39.2
			c24.2,0,39.2,17.7,39.2,34.1c0,15.1-4.4,26.2-13,32.7C52.7,224.5,44,225.2,38.1,225.2z M34.1,173.7c-10.6,0-12.2,10.9-12.2,17.4
			c0,8.4,9.7,12.2,12.2,12.2l4,0.1l0,0c2.9,0,6.6-0.2,8.9-2c2.8-2.2,4.4-7.7,4.4-15.4C51.4,181.8,46.2,173.7,34.1,173.7z"/>
		<path class="st0" d="M207.9,52.6c0-2.2,0.2-4.3,0.5-6.4l-20.8,15.6l13.1,17.5L215,68.6C210.9,64.8,207.9,59.5,207.9,52.6z"/>
		<path class="st0" d="M235,86.8L235,86.8l-4-0.1c-14.2,0-34.1-12.9-34.1-34.1c0-23.4,13.7-39.2,34.1-39.2
			c24.2,0,39.2,17.7,39.2,34.1c0,15.1-4.4,26.2-13,32.7C249.6,86,240.9,86.8,235,86.8z M231,35.3c-10.6,0-12.2,10.8-12.2,17.4
			c0,8.4,9.7,12.2,12.2,12.2l4,0.1l0,0c2.9,0,6.6-0.2,8.9-2c2.8-2.2,4.4-7.7,4.4-15.4C248.3,43.3,243.2,35.3,231,35.3z"/>
		<path class="st0" d="M101.9,426.2c7.2,0,13.2,2.2,17.8,5.3l18-90c-2.1,0.1-3.9-0.1-5.2-0.1c-4.2,0-10.6-2.3-15.7-6.8l-18.4,92
			C99.5,426.4,100.7,426.2,101.9,426.2z"/>
		<path class="st0" d="M236,467.8l-11.6-20.7l-19.1,10.7l12.3,22C221.1,472.9,227.2,468.3,236,467.8z"/>
		<path class="st0" d="M214.8,500.6c-0.3-1.4-0.5-3-0.5-4.6c0-6.6,1.4-12.5,4.1-17.3l-88.2-29.9c0,0.2,0.1,0.4,0.1,0.5
			c0,10.1-2.2,16.5-5.4,20.8L214.8,500.6z"/>
		<path class="st0" d="M265.7,490.8c0,0.7-0.1,1.3-0.1,2.1l9.8-5.2l-10.3-19.3l-9.5,5C262.1,478.1,265.7,484.9,265.7,490.8z"/>
		<path class="st0" d="M475.4,356.3l-62.3,128.1c8.7,0.8,15.4,4.6,19.6,9.6l60.1-123.6C486.8,368.9,478.9,364.2,475.4,356.3z"/>
		<path class="st0" d="M238.6,68l-21.4,4.2l16.4,83.7c9,0.5,16.8,2.4,23.3,5.3L238.6,68z"/>
		<path class="st0" d="M153.1,297.6c4.9,4.5,7.6,10.4,7.6,15.6c0,1.8-0.1,3.5-0.2,5.1l44.8-20.4c-4.5-5.5-8.9-11.6-13.1-18
			L153.1,297.6z"/>
		<path class="st0" d="M169.8,212.6L61.9,193.2c-1.8,14-9,18.8-16,20.3l66.4,90.1c3.1-7.2,9-12.1,17.6-13L76.3,218l95.6,17.2
			c-1.5-6.4-2.3-12.9-2.3-19.4C169.6,214.7,169.7,213.7,169.8,212.6z"/>
		<path class="st0" d="M232.4,468.2c1.6-0.3,3.2-0.5,5-0.5c6.6,0,12.1,1.7,16.5,4.5l14-121.1c-5-0.6-10.7-3.3-20.7-11.1L232.4,468.2
			z"/>
		<path class="st0" d="M390.7,495.5c3.6-6.7,9.8-11.2,18.7-11.4L308.9,328.3c-5.3,5-11.2,10-17,14L390.7,495.5z"/>
		<polygon class="st0" points="272.4,312.2 272.7,310 271.5,310.7 		"/>
		<path class="st0" d="M458.1,107.6c-6.1,7.3-15.3,7.1-20.8,7l46.5,198.9l-123.2-53.1c-3.2,6.7-6.8,13.1-10.7,19.2L476,334
			c3.3-8.7,10.1-14.6,20.8-14.6c4.2,0,7.9,0.8,11.3,2L458.1,107.6z"/>
		<path class="st0" d="M362,183l67.2-69.7c-6.2-2.3-13.1-7.3-15.6-15.4l-66.7,69.3C352.8,171.5,357.9,176.8,362,183z"/>
	</g>
	<path class="st1" d="M311.7,174.8c-34.2,0-41,30.1-41,30.1s-5.4-30.1-41-30.1c-22.7,0-41,18.3-41,41c0,53.5,74.7,116.3,82,116.3
		c10,0,82-63.5,82-116.3C352.7,193.2,334.3,174.8,311.7,174.8z"/>
</g>
<g>
	<g>
		<path class="st2" d="M607.3,33.8c-3.1,0-5.6-2.5-5.6-5.6V5.6c0-3.1,2.5-5.6,5.6-5.6s5.6,2.5,5.6,5.6v22.5
			C612.9,31.3,610.4,33.8,607.3,33.8z"/>
	</g>
	<g>
		<path class="st2" d="M607.3,213.8c-3.1,0-5.6-2.5-5.6-5.6v-45c0-3.1,2.5-5.6,5.6-5.6s5.6,2.5,5.6,5.6v45
			C612.9,211.3,610.4,213.8,607.3,213.8z M607.3,123.8c-3.1,0-5.6-2.5-5.6-5.6v-45c0-3.1,2.5-5.6,5.6-5.6s5.6,2.5,5.6,5.6v45
			C612.9,121.3,610.4,123.8,607.3,123.8z"/>
	</g>
	<g>
		<path class="st2" d="M607.3,483.8c-3.1,0-5.6-2.5-5.6-5.6v-45c0-3.1,2.5-5.6,5.6-5.6s5.6,2.5,5.6,5.6v45
			C612.9,481.2,610.4,483.8,607.3,483.8z M607.3,393.8c-3.1,0-5.6-2.5-5.6-5.6v-45c0-3.1,2.5-5.6,5.6-5.6s5.6,2.5,5.6,5.6v45
			C612.9,391.2,610.4,393.8,607.3,393.8z M607.3,303.8c-3.1,0-5.6-2.5-5.6-5.6v-45c0-3.1,2.5-5.6,5.6-5.6s5.6,2.5,5.6,5.6v45
			C612.9,301.3,610.4,303.8,607.3,303.8z"/>
	</g>
	<g>
		<path class="st2" d="M607.3,551.3c-3.1,0-5.6-2.5-5.6-5.6v-22.5c0-3.1,2.5-5.6,5.6-5.6s5.6,2.5,5.6,5.6v22.5
			C612.9,548.8,610.4,551.3,607.3,551.3z"/>
	</g>
</g>
<g>
	<path class="st3" d="M745.8,38.8V107c5.3-8.4,11.2-15.9,17.7-22.4c6.5-6.5,13.3-12.2,20.4-17.1c7.1-4.8,14.2-8.9,21.5-12.2
		c7.3-3.3,14.3-5.9,21-8.1c15.8-5.1,32-7.9,48.6-8.5c23.8,0,45.4,4.6,64.9,13.7c19.5,9.2,36.1,21.2,49.9,36.2
		c13.8,15,24.4,31.8,31.9,50.7c7.5,18.8,11.2,38,11.2,57.3c0,16.6-2.2,32.1-6.5,46.3c-4.3,14.2-10.3,27.2-17.8,38.8
		c-7.6,11.7-16.5,22.1-26.7,31.1c-10.2,9.1-21.2,16.7-32.8,22.9c-11.7,6.2-23.8,10.9-36.5,14.1c-12.6,3.2-25.1,4.7-37.3,4.7
		c-3,0-6.2-0.2-9.8-0.6c-3-0.4-6.3-0.9-10.1-1.4c-3.8-0.5-7.6-1.3-11.4-2.4l162.3,162.3h-39.2L745.5,291.1v221.4h-28.4V38.8H745.8z
		 M926.6,318.1c15.9-6.8,29.8-16.2,41.7-28.1c11.9-11.9,21.3-25.8,28.1-41.7c6.8-15.9,10.3-32.9,10.3-51c0-18.1-3.4-35.1-10.3-51
		c-6.8-15.9-16.2-29.8-28.1-41.7c-11.9-11.9-25.8-21.3-41.7-28.1c-15.9-6.8-32.9-10.3-51-10.3c-18.1,0-35.1,3.4-51,10.3
		c-15.9,6.8-29.8,16.2-41.7,28.1c-11.9,11.9-21.3,25.8-28.1,41.7c-6.8,15.9-10.3,32.9-10.3,51c0,18.1,3.4,35.1,10.3,51
		c6.8,15.9,16.2,29.8,28.1,41.7c11.9,11.9,25.8,21.3,41.7,28.1c15.9,6.8,32.9,10.3,51,10.3C893.7,328.4,910.7,325,926.6,318.1z"/>
	<path class="st3" d="M1106.5,355.9c0,3.4,0.7,8.9,2.1,16.6c1.4,7.7,3.9,16.4,7.6,26.1c3.7,9.7,8.6,19.7,14.8,30
		c6.2,10.3,14.2,19.7,23.8,28.3c9.7,8.5,21.3,15.5,34.9,21c13.6,5.5,29.4,8.2,47.5,8.2c18.3-0.8,35.5-4.4,51.5-10.7
		c6.7-2.7,13.6-6.2,20.5-10.3c6.9-4.1,13.6-9.2,19.9-15.3c6.3-6.1,12.1-13.3,17.4-21.6c5.3-8.3,9.5-17.8,12.6-28.6h28.1
		c-4,14.1-9.2,26.5-15.6,37.3c-6.4,10.7-13.5,20.1-21.3,28c-7.8,7.9-16,14.6-24.6,20.1c-8.6,5.5-17.2,10-25.6,13.6
		c-19.6,8.4-40.6,13.2-63.2,14.2c-18.1,0-34.5-2.4-49.3-7.1c-14.7-4.7-28-11.2-39.6-19.3c-11.7-8.1-21.7-17.5-30.2-28.3
		c-8.4-10.7-15.4-22-21-33.8c-5.6-11.8-9.7-23.8-12.5-36.2c-2.7-12.3-4.1-24.1-4.1-35.2c0-9.3,1.3-19.5,3.9-30.8
		c2.6-11.3,6.7-22.6,12.2-34c5.5-11.4,12.4-22.4,20.8-33.2c8.4-10.7,18.4-20.2,30-28.4c11.6-8.2,24.8-14.8,39.6-19.9
		c14.8-5.1,31.4-7.6,49.7-7.6c17.1,0,32.8,2.3,47.2,6.8c14.4,4.5,27.4,10.6,39,18.3c11.6,7.7,21.8,16.7,30.8,27
		c8.9,10.3,16.4,21.3,22.3,33c5.9,11.7,10.4,23.7,13.4,36c3.1,12.3,4.6,24.3,4.6,35.8H1106.5z M1365.5,330
		c-3-13.1-7.1-24.6-12.3-34.6c-5.3-10-11.2-18.6-17.7-25.9c-6.5-7.3-13.5-13.4-21-18.5c-7.5-5.1-14.9-9.3-22.3-12.6
		c-17.3-7.6-35.8-12-55.6-13.3c-19.8,1.3-38.3,5.7-55.6,13.3c-7.4,3.4-14.8,7.6-22.3,12.6c-7.5,5.1-14.5,11.2-21,18.5
		c-6.5,7.3-12.4,15.9-17.7,25.9c-5.3,10-9.4,21.5-12.3,34.6H1365.5z"/>
	<path class="st3" d="M1614.9,244.9c-2.7-5.2-6.3-9.6-10.6-13.3c-4.3-3.7-9.1-6.5-14.2-8.5c-5.2-2-10.2-3-15-3
		c-6.5,0-12.4,1.2-17.7,3.5c-5.3,2.3-9.8,5.5-13.6,9.5c-3.8,4-6.7,8.7-8.7,14.1c-2,5.4-3,11.2-3,17.5c0,3.4,0.6,7.6,1.7,12.6
		c1.2,5.1,3.6,9.9,7.4,14.7c3.8,4.7,9.2,8.8,16.1,12.2c6.9,3.4,16.2,5.1,27.8,5.1c9.3,0,19.2,2.4,29.8,7.3
		c10.6,4.8,20.5,11.6,29.5,20.4c9.1,8.7,16.6,19.2,22.6,31.4c6,12.2,9,25.8,9,40.7c0,10.3-2.1,21.5-6.3,33.6
		c-4.2,12.1-10.7,23.3-19.4,33.6c-8.7,10.3-19.7,18.9-33,25.9c-13.3,6.9-28.9,10.4-47.1,10.4c-12.8,0-25.2-2.4-37-7.3
		c-11.8-4.8-22.2-11.4-31.1-19.6c-9-8.2-16.1-17.8-21.5-28.9c-5.4-11.1-8.1-22.8-8.1-35.2h27.5c0,6.5,1.6,13.6,4.9,21.3
		c3.3,7.7,8,14.8,14.2,21.5c6.2,6.6,13.7,12.2,22.6,16.6c8.8,4.4,18.8,6.6,30,6.6c9.1,0,18.2-1.6,27.3-4.7c9.2-3.2,17.4-8,24.8-14.5
		c7.4-6.5,13.4-14.7,18-24.5c4.6-9.8,6.9-21.2,6.9-34.3c0-10.1-2.3-19.6-6.8-28.4c-4.5-8.8-10.1-16.6-16.7-23.2
		c-6.6-6.6-13.6-11.8-20.8-15.6c-7.3-3.8-13.7-5.7-19.4-5.7c-9.9,0-19.6-1.3-29.2-3.9c-9.6-2.6-18.2-6.8-25.9-12.5
		c-7.7-5.7-13.9-13.1-18.6-22.1c-4.7-9.1-7.1-20.1-7.1-33.2c0-6.3,1.2-13.6,3.5-21.9c2.3-8.3,6.2-16.2,11.7-23.5
		c5.5-7.4,12.7-13.6,21.8-18.8c9.1-5.2,20.3-7.7,33.8-7.7c10.1,0,18.9,1.4,26.4,4.1c7.5,2.7,13.8,6.3,19.1,10.7s9.6,9.3,12.9,14.7
		c3.4,5.4,6,10.6,7.9,15.8c1.9,5.2,3.2,9.9,3.9,14.2c0.7,4.3,1.1,7.6,1.1,9.9h-27.5C1619.1,255.9,1617.7,250,1614.9,244.9z"/>
	<path class="st4" d="M2113.6,478.7c-8,4.8-16.1,9-24.3,12.5c-8.2,3.5-16.3,6.5-24.3,9c-8,2.5-15.6,4.5-22.7,6
		c-17.1,3.8-33.9,5.9-50.5,6.3c-24.2,0-46.9-3.3-68.1-9.8c-21.2-6.5-40.5-15.5-58.1-26.8c-17.6-11.4-33.2-24.7-46.9-40
		c-13.7-15.3-25.2-31.7-34.6-49.3c-9.4-17.6-16.5-35.8-21.5-54.6c-4.9-18.8-7.4-37.6-7.4-56.4c0-21.3,2.8-41.9,8.4-61.9
		c5.6-20,13.4-38.8,23.5-56.4c10.1-17.6,22.3-33.6,36.5-48.2c14.2-14.5,30.1-27,47.5-37.4c17.5-10.4,36.3-18.5,56.5-24.3
		c20.2-5.8,41.3-8.7,63.2-8.7c23.6,0,45.8,3,66.8,9c20.9,6,40.2,14.4,57.8,25.1c17.6,10.7,33.4,23.5,47.4,38.4
		c14,14.8,25.9,31,35.7,48.5c9.8,17.5,17.3,36.1,22.4,55.7c5.2,19.7,7.7,39.7,7.7,60.2c-0.6,20.4-3.6,40.6-8.8,60.6
		c-2.3,8.6-5.2,17.6-8.5,26.8c-3.4,9.3-7.5,18.5-12.3,27.6c-4.8,9.2-10.6,18.2-17.2,27c-6.6,8.8-14.3,17.1-22.9,24.6l70.1,70.1
		h-41.7l-50.5-50.5C2129.3,468.3,2121.6,473.9,2113.6,478.7z M2088.1,370.7l52.7,52.7c7.6-6.7,14.2-14,19.9-21.8
		c5.7-7.8,10.6-15.8,14.8-24c4.2-8.2,7.7-16.4,10.6-24.6c2.8-8.2,5.2-16.1,7.1-23.7c4.4-17.7,6.9-35.6,7.6-53.7
		c0-19.6-2.6-38.3-7.7-56.2c-5.2-17.9-12.4-34.6-21.8-50.1c-9.4-15.5-20.5-29.6-33.3-42.3c-12.8-12.7-27.1-23.6-42.6-32.5
		c-15.6-8.9-32.2-15.9-49.9-20.8c-17.7-4.9-35.9-7.4-54.6-7.4c-18.7,0-36.9,2.5-54.3,7.6c-17.5,5.1-34,12.2-49.4,21.3
		c-15.5,9.2-29.6,20.1-42.3,32.8c-12.7,12.7-23.7,26.8-33,42.3c-9.3,15.5-16.4,32-21.5,49.6c-5.1,17.6-7.6,35.7-7.6,54.5
		c0,16.6,2.1,33.4,6.3,50.2c4.2,16.8,10.4,33.1,18.6,48.6c8.2,15.6,18.4,30.2,30.5,43.7c12.1,13.6,25.9,25.4,41.4,35.5
		c15.5,10.1,32.6,18.1,51.5,23.8c18.8,5.8,39.2,8.7,61.1,8.7c14.7-0.4,29.5-2.2,44.2-5.4c6.3-1.3,12.9-2.9,19.9-5.1
		c6.9-2.1,14-4.6,21.2-7.6c7.2-2.9,14.2-6.4,21-10.4c6.8-4,13.4-8.7,19.7-14.2l-71.7-71.7H2088.1z"/>
</g>
</svg>
